<svg height="512pt" viewBox="0 0 512 512" width="512pt" xmlns="http://www.w3.org/2000/svg"><path d="m201.082031 149.78125v-74.910156l-51.410156-52.449219v123c4.921875-.570313 9.925781-.875 15-.875 12.640625 0 24.859375 1.835937 36.410156 5.234375zm0 0"/><path d="m438.828125 52.894531 51.847656-52.894531h-320.097656l51.84375 52.894531zm0 0"/><path d="m460.589844 307.847656 51.410156 52.453125v-337.878906l-51.410156 52.449219zm0 0"/><path d="m231.082031 162.96875c37.566407 22.613281 62.746094 63.789062 62.746094 110.738281 0 8.632813-.859375 17.066407-2.480469 25.230469h138.820313v-215.15625h-199.085938zm70.414063 4.039062 11.949218-23.816406v-28.429687h42.253907l.386719 28.402343 11.964843 23.84375c5.957031 11.871094 8.214844 25.113282 6.523438 38.289063l-8.042969 62.699219h-63.519531l-8.042969-62.699219c-1.6875-13.175781.566406-26.417969 6.527344-38.289063zm0 0"/><path d="m327.429688 240.246094h14.683593l4.9375-38.480469c.984375-7.675781-.332031-15.394531-3.804687-22.3125l-8.472656-16.886719-8.476563 16.886719c-3.472656 6.917969-4.785156 14.636719-3.800781 22.3125zm0 0"/><path d="m281.390625 328.9375c-1.535156 3.234375-3.1875 6.402344-4.976563 9.480469 20.488282 10.289062 38.246094 25.230469 51.914063 43.414062h162.347656l-51.847656-52.894531zm0 0"/><path d="m253.292969 360.023438-89.117188 101.910156-89.121093-101.910156c-43.90625 17.3125-75.054688 60.15625-75.054688 110.136718v41.839844h328.347656v-41.839844c0-49.980468-31.148437-92.824218-75.054687-110.136718zm25.726562 107.46875h-61.601562v-30h61.601562zm0 0"/><path d="m264.828125 273.707031c0-55.230469-44.929687-100.160156-100.15625-100.160156s-100.15625 44.929687-100.15625 100.160156c0 38.117188 21.40625 71.324219 52.824219 88.246094l47.332031 53.503906 47.332031-53.503906c31.421875-16.921875 52.824219-50.128906 52.824219-88.246094zm0 0"/></svg>