<svg width="137" height="21" viewBox="0 0 137 21" fill="none" xmlns="http://www.w3.org/2000/svg">
<path d="M11.732 20.392C9.67867 20.392 7.83067 19.9627 6.188 19.104C4.564 18.2267 3.28533 17.0133 2.352 15.464C1.41867 13.9147 0.952 12.16 0.952 10.2C0.952 8.24 1.41867 6.48533 2.352 4.936C3.28533 3.38667 4.564 2.18267 6.188 1.324C7.83067 0.446665 9.67867 0.0079987 11.732 0.0079987C13.524 0.0079987 15.1387 0.325332 16.576 0.96C18.0133 1.59467 19.208 2.50933 20.16 3.704L16.632 6.896C15.3627 5.36533 13.8227 4.6 12.012 4.6C10.948 4.6 9.996 4.83333 9.156 5.3C8.33467 5.76667 7.69067 6.42933 7.224 7.288C6.776 8.128 6.552 9.09867 6.552 10.2C6.552 11.3013 6.776 12.2813 7.224 13.14C7.69067 13.98 8.33467 14.6333 9.156 15.1C9.996 15.5667 10.948 15.8 12.012 15.8C13.8227 15.8 15.3627 15.0347 16.632 13.504L20.16 16.696C19.208 17.8907 18.0133 18.8053 16.576 19.44C15.1387 20.0747 13.524 20.392 11.732 20.392ZM41.2799 0.399999V20H35.7359V12.356H28.1759V20H22.6319V0.399999H28.1759V7.764H35.7359V0.399999H41.2799ZM53.7585 14.792H50.7345V20H45.1905V0.399999H54.1505C55.9238 0.399999 57.4638 0.698665 58.7705 1.296C60.0771 1.87467 61.0851 2.71467 61.7945 3.816C62.5038 4.89867 62.8585 6.17733 62.8585 7.652C62.8585 9.07067 62.5225 10.312 61.8505 11.376C61.1971 12.4213 60.2545 13.2427 59.0225 13.84L63.2505 20H57.3145L53.7585 14.792ZM57.2585 7.652C57.2585 6.73733 56.9691 6.028 56.3905 5.524C55.8118 5.02 54.9531 4.768 53.8145 4.768H50.7345V10.508H53.8145C54.9531 10.508 55.8118 10.2653 56.3905 9.78C56.9691 9.276 57.2585 8.56667 57.2585 7.652ZM75.801 20.392C73.729 20.392 71.8624 19.9533 70.201 19.076C68.5584 18.1987 67.261 16.9853 66.309 15.436C65.3757 13.8867 64.909 12.1413 64.909 10.2C64.909 8.25867 65.3757 6.51333 66.309 4.964C67.261 3.41467 68.5584 2.20133 70.201 1.324C71.8624 0.446665 73.729 0.0079987 75.801 0.0079987C77.873 0.0079987 79.7304 0.446665 81.373 1.324C83.0344 2.20133 84.3317 3.41467 85.265 4.964C86.217 6.51333 86.693 8.25867 86.693 10.2C86.693 12.1413 86.217 13.8867 85.265 15.436C84.3317 16.9853 83.0344 18.1987 81.373 19.076C79.7304 19.9533 77.873 20.392 75.801 20.392ZM75.801 15.8C76.7904 15.8 77.6864 15.5667 78.489 15.1C79.2917 14.6333 79.9264 13.98 80.393 13.14C80.8597 12.2813 81.093 11.3013 81.093 10.2C81.093 9.09867 80.8597 8.128 80.393 7.288C79.9264 6.42933 79.2917 5.76667 78.489 5.3C77.6864 4.83333 76.7904 4.6 75.801 4.6C74.8117 4.6 73.9157 4.83333 73.113 5.3C72.3104 5.76667 71.6757 6.42933 71.209 7.288C70.7424 8.128 70.509 9.09867 70.509 10.2C70.509 11.3013 70.7424 12.2813 71.209 13.14C71.6757 13.98 72.3104 14.6333 73.113 15.1C73.9157 15.5667 74.8117 15.8 75.801 15.8ZM107.293 20L107.237 9.612L102.197 18.068H99.7327L94.7207 9.892V20H89.5967V0.399999H94.1607L101.049 11.712L107.769 0.399999H112.333L112.389 20H107.293ZM129.444 16.192H121.156L119.616 20H113.96L122.612 0.399999H128.072L136.752 20H130.984L129.444 16.192ZM127.82 12.104L125.3 5.832L122.78 12.104H127.82Z" fill="#CA0000"/>
</svg>
